<?xml version="1.0" standalone="no"?>
<!DOCTYPE svg PUBLIC "-//W3C//DTD SVG 20010904//EN"
 "http://www.w3.org/TR/2001/REC-SVG-20010904/DTD/svg10.dtd">
<svg version="1.0" xmlns="http://www.w3.org/2000/svg"
 width="501.000000pt" height="501.000000pt" viewBox="0 0 501.000000 501.000000"
 preserveAspectRatio="xMidYMid meet">
<metadata>
Created by potrace 1.14, written by Peter Selinger 2001-2017
</metadata>
<g transform="translate(0.000000,501.000000) scale(0.100000,-0.100000)"
fill="#000000" stroke="none">
<path d="M1939 3640 c0 -5 0 -80 0 -165 0 -85 0 -162 0 -170 1 -12 15 -15 66
-15 l65 0 0 -35 0 -35 210 0 210 0 1 -47 c0 -27 0 -295 0 -596 0 -468 -2 -556
-16 -602 -17 -60 -60 -110 -115 -133 -92 -38 -285 -20 -453 43 l-87 32 2 -196
3 -196 60 -21 c33 -12 61 -28 63 -37 2 -8 11 -17 20 -20 9 -3 55 -16 102 -30
112 -33 160 -39 317 -42 405 -7 603 127 654 444 8 50 15 1309 9 1733 0 26 -2
27 -62 30 l-63 3 1 33 1 32 -494 0 c-321 0 -493 -3 -494 -10z"/>
<path d="M1435 3147 c-73 -40 -157 -84 -495 -260 -63 -33 -160 -83 -215 -112
-55 -29 -163 -85 -240 -125 -77 -40 -142 -76 -145 -81 -3 -4 -5 -110 -5 -236
l0 -228 70 -38 c39 -21 131 -70 205 -109 74 -39 176 -92 225 -118 50 -26 142
-74 205 -107 155 -81 295 -155 473 -247 l147 -78 0 200 0 200 -97 52 c-149 80
-295 156 -550 284 -128 65 -233 121 -233 125 0 4 125 71 278 149 152 77 350
178 439 224 l163 83 0 198 c0 108 -3 197 -7 197 -5 0 -32 -14 -62 -30 -30 -17
-56 -30 -58 -30 -1 0 -3 29 -3 65 0 36 -3 65 -7 65 -5 0 -44 -20 -88 -43z"/>
<path d="M3350 2993 l0 -198 83 -44 c149 -80 701 -362 750 -384 26 -11 46 -25
44 -31 -2 -5 -41 -29 -88 -53 -46 -24 -241 -124 -434 -222 l-350 -179 -3 -201
-2 -202 65 35 65 34 0 -69 0 -70 148 77 c81 42 188 98 237 124 104 54 266 140
410 215 55 29 163 85 240 125 77 40 144 77 150 82 6 5 10 98 10 238 l0 229
-115 62 c-175 94 -222 120 -385 204 -82 43 -186 97 -230 120 -44 24 -134 71
-200 105 -66 35 -179 94 -252 131 -72 38 -134 69 -137 69 -3 0 -6 -89 -6 -197z"/>
</g>
</svg>
