<svg width="165" height="45" viewBox="0 0 165 45" fill="none" xmlns="http://www.w3.org/2000/svg">
<g clip-path="url(#clip0_1459_2248)">
<path d="M94.8998 41.5701C94.5528 41.5701 94.3758 41.3413 94.3758 41.1124V32.6705C94.3758 32.3958 94.5812 32.1997 94.8573 32.1997H96.1745C96.4507 32.1997 96.6561 32.3958 96.6561 32.6705V41.1124C96.6561 41.3413 96.4719 41.5701 96.132 41.5701H94.8998ZM70.0365 41.2039C69.9161 41.472 69.7462 41.5701 69.4417 41.5701H68.9531C68.6202 41.5701 68.4432 41.4655 68.3086 41.1974L65.7876 36.2343C65.7876 36.2343 65.7168 39.8373 65.6885 41.0339C65.6814 41.4263 65.4618 41.5636 65.0794 41.5636H64.1305C63.7056 41.5636 63.5215 41.3478 63.5357 41.0012C63.6348 38.9218 63.8331 34.763 63.9322 32.6901C63.9464 32.3631 64.1518 32.1931 64.4988 32.1931H65.3698C65.7309 32.1931 65.908 32.3239 66.0567 32.5985C66.8569 34.1287 69.2717 38.7191 69.2717 38.7191C69.2717 38.7191 71.4812 34.1352 72.2176 32.6051C72.3593 32.3174 72.5363 32.1931 72.8762 32.1931H73.7048C74.0518 32.1931 74.2359 32.3566 74.2571 32.677C74.3704 34.7564 74.597 38.9153 74.7103 40.9947C74.7316 41.3282 74.5616 41.5636 74.158 41.5636H73.0108C72.6071 41.5636 72.4301 41.3936 72.4159 40.9358C72.3734 39.7523 72.253 36.2146 72.253 36.2146L70.0436 41.2039H70.0365ZM92.7825 40.8705C92.8958 41.0405 92.9099 41.217 92.8249 41.3543C92.74 41.4917 92.5771 41.5701 92.3717 41.5701H91.0404C90.7076 41.5701 90.4668 41.4459 90.2968 41.1843L88.5548 38.4706L86.8127 41.1843C86.6427 41.459 86.4232 41.5701 86.055 41.5701H84.8936C84.6316 41.5701 84.5112 41.4459 84.4687 41.3674C84.3837 41.2301 84.405 41.0535 84.5112 40.8835L87.3367 36.7508L84.7095 32.8666C84.6033 32.7097 84.5891 32.5331 84.6741 32.3958C84.752 32.265 84.9007 32.1931 85.0919 32.1931H86.4374C86.6427 32.1931 86.9331 32.2585 87.1385 32.5789L88.6752 34.9591L90.2473 32.5397C90.4172 32.2847 90.5942 32.1931 90.92 32.1931H92.1805C92.3717 32.1931 92.5204 32.2716 92.5983 32.4024C92.6762 32.5397 92.655 32.7228 92.5417 32.8732L89.8649 36.6201L92.7825 40.8639V40.8705ZM98.7593 36.8816C98.7593 33.8737 100.487 32.0427 103.384 32.0427C104.382 32.0427 105.239 32.2062 106.259 32.592C106.705 32.7751 106.648 33.089 106.577 33.2655L106.266 34.0306C106.202 34.1745 106.117 34.2595 106.004 34.3052C105.848 34.3641 105.692 34.3118 105.579 34.266C104.949 34.0044 104.297 33.8737 103.66 33.8737C102.095 33.8737 101.16 34.9853 101.16 36.8882C101.16 38.791 102.095 39.9027 103.66 39.9027C104.297 39.9027 104.949 39.7719 105.579 39.5103C105.692 39.4646 105.848 39.4122 106.004 39.4711C106.117 39.5169 106.202 39.6019 106.266 39.7457L106.577 40.5108C106.655 40.6874 106.712 41.0012 106.259 41.1843C105.239 41.5701 104.382 41.7336 103.384 41.7336C100.487 41.7336 98.7593 39.9027 98.7593 36.8947V36.8816ZM107.682 36.8816C107.682 39.8438 109.431 41.7205 112.172 41.7205C114.912 41.7205 116.661 39.8438 116.661 36.8816C116.661 33.9194 114.912 32.0427 112.172 32.0427C109.431 32.0427 107.682 33.9194 107.682 36.8816ZM110.076 36.8816C110.076 34.8872 110.784 33.8737 112.172 33.8737C113.56 33.8737 114.268 34.8872 114.268 36.8816C114.268 38.876 113.56 39.8896 112.172 39.8896C110.784 39.8896 110.076 38.876 110.076 36.8816ZM78.5061 30.918C78.4211 30.8068 78.3503 30.6826 78.3715 30.5387C78.3927 30.3753 78.5273 30.2772 78.6406 30.2052L80.5526 28.9563C80.673 28.8778 80.8288 28.7863 81.0129 28.8124C81.19 28.8386 81.3033 28.9694 81.367 29.0609L81.7848 29.6429C81.8839 29.7802 81.9123 29.9044 81.8839 30.0287C81.8556 30.1464 81.7636 30.2379 81.6219 30.3099L79.4975 31.3953C79.3771 31.4542 79.2709 31.4869 79.1717 31.4869C79.0159 31.4869 78.8814 31.4084 78.7539 31.245L78.5131 30.918H78.5061ZM82.5992 41.5701C82.9603 41.5701 83.1657 41.3805 83.1657 41.047V40.3081C83.1657 39.9811 82.9533 39.798 82.585 39.798H79.0797V37.6402H82.0822C82.4505 37.6402 82.6488 37.4636 82.6488 37.1432V36.3781C82.6488 36.0577 82.4505 35.8811 82.0822 35.8811H79.0797V33.9652H82.3442C82.5567 33.9652 82.9958 33.9652 83.0453 33.5075L83.1445 32.7359C83.1586 32.6247 83.1728 32.4678 83.0524 32.3435C82.9603 32.2454 82.8187 32.1997 82.6204 32.1997H77.2739C76.9977 32.1997 76.7923 32.3958 76.7923 32.6705V41.1124C76.7923 41.3413 76.9764 41.5701 77.3164 41.5701H82.5921H82.5992Z" fill="white"/>
<path d="M89.3975 11.863H86.5437C85.8568 11.863 85.3327 12.0199 84.7875 12.6019C84.2422 13.1839 80.7581 16.8915 80.7581 16.8915V11.863H76.7995V24.7122C76.7995 25.1111 77.1535 25.4446 77.5926 25.4446H80.7581V19.2848C80.7581 19.2848 83.7252 23.5679 84.2422 24.3199C84.7662 25.0719 85.2832 25.4446 86.4658 25.4446H89.7162L84.1643 17.4343L89.3975 11.8695V11.863ZM72.6568 11.863H63.8473V24.2284C63.8473 24.9084 64.5696 25.4446 65.3344 25.4446H72.6638C73.0958 25.4446 73.457 25.1177 73.457 24.7122V22.9598H68.4008C68.075 22.9598 67.8059 22.7113 67.8059 22.404V19.5464H72.3098V17.0615H67.8059V14.3413H73.457V12.5888C73.457 12.1834 73.1029 11.8564 72.6638 11.8564L72.6568 11.863ZM100.494 11.863H91.6849V24.2284C91.6849 24.9084 92.4072 25.4446 93.172 25.4446H100.501C100.933 25.4446 101.295 25.1177 101.295 24.7122V22.9598H96.2383C95.9126 22.9598 95.6435 22.7113 95.6435 22.404V19.5464H100.147V17.0615H95.6435V14.3413H101.295V12.5888C101.295 12.1834 100.94 11.8564 100.501 11.8564L100.494 11.863ZM44.4085 11.863H40.4499V24.7122C40.4499 25.1111 40.8111 25.4446 41.243 25.4446H44.4085V11.863ZM36.0593 11.863H27.2428V24.2284C27.2428 24.9346 27.9651 25.4446 28.7299 25.4446H36.0593C36.4913 25.4446 36.8525 25.1177 36.8525 24.7122V22.9598H31.7962C31.4705 22.9598 31.2014 22.7113 31.2014 22.404V19.5464H35.7053V17.0615H31.2014V14.3413H36.8454V12.5888C36.8454 12.1834 36.4913 11.8564 36.0523 11.8564L36.0593 11.863ZM23.2488 11.863H19.2973V17.0681H15.8344V11.863H11.2456V12.3992C11.2456 12.3992 11.8688 12.615 11.8688 13.3081V25.4446H15.8344V19.5529H19.2973V25.4446H23.2488V11.863ZM59.8463 11.863V24.7122C59.8463 25.1111 59.4922 25.4446 59.0531 25.4446H56.6241L51.2847 17.6631C51.2847 17.6631 51.398 18.3105 51.398 19.1213V25.4512H48.4379V11.863H50.357C51.3342 11.863 52.0495 12.2357 52.5593 12.9812C52.9913 13.6155 57.0349 19.481 57.0349 19.481C57.0349 19.481 56.8932 19.0821 56.8932 18.0097V11.863H59.8533H59.8463ZM116.669 11.863V12.3992C116.669 12.3992 116.038 12.6281 116.038 13.3081V24.7122C116.038 25.1111 115.691 25.4446 115.252 25.4446H112.823L107.484 17.6631C107.484 17.6631 107.597 18.3105 107.597 19.1213V25.4512H104.637V11.863H106.556C107.533 11.863 108.249 12.2357 108.758 12.9812C109.19 13.6155 113.234 19.481 113.234 19.481C113.234 19.481 113.092 19.0821 113.092 18.0097V11.863H116.669Z" fill="white"/>
<path d="M3.87361 16.8132C3.67532 16.9439 3.4133 16.7739 3.4912 16.5581C3.59742 16.2573 5.58734 10.6011 5.58734 10.6011L0.106223 6.91956C-0.09206 6.78878 0.0141632 6.5076 0.247854 6.5076C0.59485 6.5076 7.02489 6.5076 7.02489 6.5076C7.02489 6.5076 9.01481 0.857848 9.12103 0.550512C9.19185 0.341262 9.5176 0.334723 9.58841 0.550512C9.69464 0.851309 11.6845 6.50106 11.6845 6.50106C11.6845 6.50106 18.1217 6.50106 18.4616 6.50106C18.7024 6.50106 18.8086 6.78224 18.6032 6.91302L15.3315 9.11015H11.4579L10.2612 5.70983L9.06438 9.11015H5.21202L8.34206 11.2092L7.14528 14.6095C7.14528 14.6095 4.07189 16.6693 3.87361 16.8066V16.8132Z" fill="white"/>
<path d="M145.915 28.3938C145.986 28.2238 146.029 28.008 145.972 27.7334C145.844 27.1383 145.462 26.334 145.073 25.6801V14.5376C145.073 10.4637 144.754 7.67808 142.778 6.34411C143.238 6.31796 143.706 6.29834 144.18 6.29834C146.085 6.29834 147.933 6.53375 149.69 6.9784C148.5 7.91349 147.969 9.0709 147.615 10.7187C148.755 9.18207 150.334 8.09658 152.055 7.72386C153.712 8.35161 155.27 9.16899 156.679 10.1498C152.749 10.1433 150.624 12.2162 149.038 15.1195C152.14 12.3208 156.12 11.255 159.554 12.5628C160.815 13.8379 161.898 15.2765 162.755 16.8393C161.098 15.7342 157.961 14.6945 156.36 16.0415C156.856 17.8398 155.079 17.7221 153.252 17.4344C149.406 16.8393 148.627 20.5273 150.886 21.6978C152.267 22.2733 153.882 21.6978 154.172 20.6581C154.342 20.05 153.804 19.468 153.018 19.6576C153.62 20.7824 151.361 21.0701 151.248 19.7754C151.198 19.1607 151.842 18.8337 153.082 18.7814C158.988 18.5329 162.847 18.2256 164.363 21.6324C165.241 23.6072 165.106 25.8698 164.533 26.5694C163.662 25.3793 162.026 24.5358 156.042 24.7385C155.114 24.7712 154.81 25.5428 154.81 25.5428H156.46C156.764 25.8828 157.451 27.0337 157.784 27.6418C157.89 27.8315 158.103 28.3284 157.926 28.4985C157.203 28.4069 156.183 28.4004 155.744 28.42C155.185 28.4462 153.542 28.7143 152.451 29.1001C152.133 29.2112 152.161 29.2701 152.501 29.2832C152.692 29.2897 152.784 29.2897 153.068 29.2832C153.407 29.5447 153.946 29.7278 154.434 29.8259C154.895 29.924 155.263 29.9109 155.546 29.8586C155.808 29.8128 156.148 29.7801 156.29 29.9305C156.368 30.009 156.41 29.9894 156.389 29.8782C156.382 29.7409 156.283 29.4924 156.113 29.3289C156.035 29.2505 156.063 29.1981 156.169 29.2047C156.424 29.2178 156.998 29.1916 157.246 29.0804C157.288 29.0608 157.345 29.0608 157.324 29.1262C157.246 29.3485 157.38 29.597 157.607 29.7409C158.088 30.0548 158.57 30.349 159.299 31.5522C160.085 32.8469 160.277 33.4747 159.469 33.782C158.945 33.9847 158.712 34.0436 158.315 34.1221C158.138 34.1548 158.138 34.1613 158.18 34.3248C158.23 34.5209 158.287 34.8217 158.315 35.0179C158.336 35.1814 158.357 35.371 158.003 35.4822C157.642 35.5933 156.601 35.7699 156.183 35.8353C156.113 35.8484 156.127 35.9399 156.198 35.9334C156.615 35.9138 157.147 35.9268 157.522 35.9726C157.699 35.9988 158.23 36.4761 158.237 36.6461C158.237 37.0385 158.046 37.4112 157.706 37.6989C157.508 37.8624 157.508 37.882 157.649 38.1894C157.777 38.4575 158.06 39.046 157.819 39.5364C157.012 41.2104 154.767 40.9227 152.253 40.7069C151.063 40.6023 150.936 40.6154 150.922 41.315C150.901 42.0866 150.936 42.7798 151.035 43.656C148.889 44.3492 146.581 44.7219 144.18 44.7219C142.821 44.7219 141.489 44.6042 140.2 44.3688C140.052 43.2964 140.002 41.9624 140.186 41.3346C140.356 40.7527 141.029 40.805 141.525 40.8769C142.516 41.0208 143.6 41.0927 144.386 41.0665C145.32 41.0339 145.696 40.7723 145.915 40.1903C146.142 39.5953 145.823 38.8433 145.689 38.5621C145.512 38.1828 145.611 38.1697 146.078 37.712C146.404 37.3916 146.432 37.2674 146.333 37.0712C146.22 36.8554 146.029 36.6134 145.809 36.4565C145.752 36.4173 145.738 36.4107 145.639 36.4173C145.094 36.45 144.641 36.4434 144.209 36.4173C144.138 36.4173 144.138 36.3388 144.201 36.3257C145.016 36.1622 145.554 35.9988 146.064 35.7634C146.198 35.6914 146.213 35.6457 146.177 35.5214C146.099 35.2729 145.986 34.9918 145.859 34.7694C145.781 34.6256 145.809 34.5733 146 34.5602C146.347 34.5471 146.836 34.4621 147.169 34.2855C147.721 33.9847 147.778 33.7101 147.572 33.115C147.388 32.5919 147.006 31.7418 146.687 31.186C146.319 30.5387 146.17 30.3621 145.965 30.1921C145.696 29.9698 145.384 29.6363 145.356 29.5055C145.342 29.4139 145.398 29.3224 145.455 29.1916C145.582 28.8647 145.639 28.6292 145.682 28.3415C145.766 28.3415 145.844 28.3546 145.922 28.3611L145.915 28.3938Z" fill="white"/>
<path d="M135.484 8.05083C136.943 7.42962 138.494 6.96535 140.108 6.66455C141.468 9.5352 141.397 12.092 140.37 14.3022C139.818 10.9607 137.602 8.78321 135.477 8.05083H135.484ZM137.191 18.2518C137.899 17.6633 138.529 17.0355 139.067 16.362C138.31 13.014 135.605 10.5161 131.858 10.0191C129.996 11.2811 128.374 12.8178 127.057 14.5703C131.717 12.9421 135.76 15.6231 137.184 18.2518H137.191ZM135.272 19.6446C132.878 16.6497 128.056 16.944 124.77 18.5526C124.069 20.207 123.616 21.9725 123.438 23.81C127.454 23.228 131.858 21.8156 135.272 19.6446ZM133.813 42.2044C132.567 38.7387 134.202 35.2926 140.052 36.025C140.406 34.6125 139.854 33.8409 138.579 33.3505C134.67 31.8465 137.51 27.0337 141.029 25.6736H145.073V23.3261C139.669 23.3261 136.922 23.4765 135.123 23.7838C133.636 24.0388 132.687 24.6404 132.928 25.6801C133.246 27.0599 135.477 26.8441 134.783 25.5428C135.64 25.3336 136.263 25.9679 136.114 26.6479C135.98 27.2364 135.668 27.6092 134.868 27.9296C133.7 28.3939 128.7 29.4728 127.17 36.62C128.92 38.8956 131.186 40.8115 133.813 42.2044ZM132.432 27.8707C131.511 27.3934 130.817 26.0463 131.554 24.8039C130.315 25.1439 128.353 25.4186 123.361 25.4447C123.361 25.4709 123.361 25.5036 123.361 25.5298C123.361 28.335 124.012 31.003 125.181 33.4093C126.958 30.3687 129.713 28.3808 132.432 27.8707ZM145.476 29.1589C145.582 28.8712 145.639 28.6423 145.675 28.3742C145.306 28.3546 144.605 28.3415 144.11 28.3677C143.196 28.4069 141.666 28.7208 140.625 29.0543C140.583 29.0674 140.548 29.0805 140.505 29.0935C140.13 29.2374 140.264 29.342 140.562 29.3616C140.831 29.3747 141.001 29.3616 141.171 29.3486C141.539 29.6363 142.127 29.9044 142.665 30.0221C143.132 30.1267 143.486 30.1202 143.791 30.0417C144.131 29.9567 144.457 29.9763 144.584 30.1006C144.641 30.1529 144.726 30.1136 144.719 30.0417C144.704 29.8913 144.605 29.6951 144.449 29.5251C144.343 29.4074 144.407 29.3486 144.492 29.3551C144.683 29.3616 144.917 29.3355 145.129 29.2832C145.228 29.257 145.398 29.1982 145.476 29.1589Z" fill="white"/>
</g>
<defs>
<clipPath id="clip0_1459_2248">
<rect width="165" height="44.361" fill="white" transform="translate(0 0.393555)"/>
</clipPath>
</defs>
</svg>
